#!OML:ASF E:/inclinewalkrobotboard/Project1/Captureday1/Session1/subject1.ASF
:FULLY-SPECIFIED
:DEGREES
201
root 0 0 0 1.424924739423913 -3.5205060495088456 1.915917147702716
lowerback 11.966333728189525 0.8821321681454248 -0.12599520825012667
upperback -4.431058195564843 1.1017192839288132 -0.6291675275535497
thorax -11.551773136429459 0.5062697185658598 -0.8501255990786661
lowerneck -6.09754502024489 1.6545354933675396 4.619008797949206
upperneck 18.44677575799728 3.157850911932273 -8.268889623542155
head 6.779285640257581 1.1638512120084377 -3.1873638063095435
rclavicle -1.7524733880535232E-16 -9.707588370645188E-16
rhumerus 22.196809535737977 15.93070754066627 -46.55960608099814
rradius 74.28600158566002
rwrist 27.878856874208722
rhand -34.84656674878656 -59.71564735899989
rfingers 7.12502
rthumb -8.006709703585384 -89.52846296482025
lclavicle -1.7331190769549408E-16 -9.485414298314598E-16
lhumerus 22.782379905209996 -12.792717157149186 43.639769936726935
lradius 71.31196889154725
lwrist -23.630731380812005
lhand -45.33288054898038 -73.17573818542331
lfingers 7.12502
lthumb -18.090016459267563 -43.95903071336126
rfemur -25.70956147657323 -2.2044475413188183 16.61272269483758
rtibia 54.81456513789014
rfoot -27.45593302374706 -16.539887282261077
rtoes -17.8304292238938
lfemur -21.71871217092968 1.2116468240288214 -18.19703536655274
ltibia 48.52676812735041
lfoot -23.64013020531197 -3.5989711257060644
ltoes -15.35299061351282
202
root 0 0 0 1.424027547234053 -3.5168843970610375 1.9201494298992012
lowerback 11.966113994143285 0.8800282045083261 -0.131011178989221
upperback -4.42984330627821 1.0984002381329776 -0.628846170709728
thorax -11.550581924612121 0.5047774651537704 -0.846504607241663
lowerneck -6.0990548597448875 1.6542685100327057 4.6173598893148755
upperneck 18.446832975967524 3.157132738551557 -8.267756089457468
head 6.779504713696989 1.1635482974984095 -3.1867351983013577
rclavicle -1.748597524637365E-16 -9.70586452939972E-16
rhumerus 22.201790862944343 15.93344781146803 -46.55618922942453
rradius 74.28994141938614
rwrist 27.881142512065445
rhand -34.84813298724038 -59.72221589761723
rfingers 7.12502
rthumb -8.008249586723311 -89.53503124099164
lclavicle -1.7261208877115673E-16 -9.490942522801512E-16
lhumerus 22.801935260789943 -12.797866759930544 43.62591482657089
lradius 71.32750475578598
lwrist -23.641433125340992
lhand -45.3395788208456 -73.21140755924806
lfingers 7.12502
lthumb -18.096667205853244 -43.992977512647684
rfemur -25.67538290211919 -2.188222624751635 16.6368119869137
rtibia 54.77683089602595
rfoot -27.413663662006584 -16.516327095658102
rtoes -17.781993975346438
lfemur -21.74570268548628 1.2187040935862306 -18.19164766341906
ltibia 48.5674469097251
lfoot -23.669693523035892 -3.60226654468727
ltoes -15.377095963157291
203
root 0 0 0 1.4236128838424116 -3.516766141560553 1.919693533098991
lowerback 11.965990901670049 0.8799617744504518 -0.13085745629462842
upperback -4.429345773620106 1.0983582581318385 -0.6285888442626221
thorax -11.549943590976628 0.5047513732682276 -0.8463087935200814
lowerneck -6.1000853565810855 1.653788773292827 4.616688021213626
upperneck 18.446968549560705 3.1564122277179707 -8.266858805962341
head 6.779739734545453 1.1632469303377988 -3.1864377128218826
rclavicle -1.7483642735650645E-16 -9.706039403426127E-16
rhumerus 22.203106455616826 15.934276434543689 -46.55529114272397
rradius 74.29114403526498
rwrist 27.881792613744143
rhand -34.848540424366256 -59.724314714370145
rfingers 7.12502
rthumb -8.008658601155961 -89.53720096861011
lclavicle -1.7246308202282695E-16 -9.48983632949347E-16
lhumerus 22.8126335643864 -12.800515708289772 43.61853763939044
lradius 71.33587674918537
lwrist -23.646992699321167
lhand -45.34315472998551 -73.22989172243304
lfingers 7.12502
lthumb -18.10003839432698 -44.011254177147194
rfemur -25.641997843984154 -2.172332698162651 16.660378638681884
rtibia 54.739789635385904
rfoot -27.372527503122335 -16.493881069329785
rtoes -17.735050329925052
lfemur -21.77345934693086 1.225728178281802 -18.186248024431226
ltibia 48.607250228572596
lfoot -23.699372189481245 -3.6048904859571467
ltoes -15.400735994558048
204
root 0 0 0 1.423682072481951 -3.5190073834657176 1.916341337437154
lowerback 11.966016801518906 0.8812771607312739 -0.12732862084871888
upperback -4.429546744180707 1.1005219833428206 -0.6285010257157572
thorax -11.549972027865207 0.5057178942369358 -0.8485191797902726
lowerneck -6.100293372345579 1.6533846375172716 4.617003023135804
upperneck 18.44709103736276 3.1560078038110055 -8.266553895801138
head 6.779875456146829 1.1630772822069262 -3.186518953095944
rclavicle -1.7478020820431993E-16 -9.705970940183787E-16
rhumerus 22.20628713681085 15.936377232642348 -46.553357186500314
rradius 74.29409160759306
rwrist 27.883253926933182
rhand -34.84959220419252 -59.72938828050683
rfingers 7.12502
rthumb -8.009683886388432 -89.54224342953782
lclavicle -1.7240254516982138E-16 -9.489431213827188E-16
lhumerus 22.81765251038306 -12.801762789515722 43.615056806558314
lradius 71.33981389519393
lwrist -23.649613838370833
lhand -45.344843543390056 -73.23856095645961
lfingers 7.12502
lthumb -18.101645692518687 -44.019932966824555
rfemur -25.611540393010245 -2.1579149811646587 16.681823563332028
rtibia 54.70635475557366
rfoot -27.335030462844273 -16.473382225391354
rtoes -17.69236098492168
lfemur -21.795712952630232 1.2312514969702162 -18.181956138718025
ltibia 48.63848047421354
lfoot -23.723060067011126 -3.6067295343572616
ltoes -15.41936400807617
